<svg width="35" height="36" viewBox="0 0 35 36" fill="none" xmlns="http://www.w3.org/2000/svg">
<path d="M34.6031 3.80226L34.2634 3.74733C32.5858 3.48685 30.9866 2.83912 29.5846 1.85227L29.2419 1.45556C28.7752 0.926974 28.1923 0.522033 27.5424 0.274851C26.8924 0.0276679 26.1945 -0.054515 25.5074 0.0352256C24.8203 0.124966 24.1642 0.384002 23.5943 0.790508C23.0243 1.19701 22.5573 1.73908 22.2326 2.37104C21.6819 3.4373 21.3909 4.62611 21.3848 5.83464V10.232C21.3841 10.2952 21.3597 10.3556 21.3167 10.4006C21.2737 10.4455 21.2156 10.4715 21.1544 10.4731L18.9952 10.4945C16.5816 10.5172 14.2159 11.1926 12.1335 12.4536L10.6566 13.3691C9.44133 14.1015 8.05807 14.4836 6.65113 14.4756C5.24419 14.4675 3.86511 14.0696 2.65774 13.3233L0.920903 12.2522C0.907513 12.2432 0.891802 12.2385 0.875809 12.2388C0.859817 12.2391 0.844283 12.2444 0.831224 12.2539C0.818166 12.2635 0.808186 12.2768 0.802582 12.2923C0.796978 12.3078 0.796007 12.3246 0.799797 12.3407L1.55597 15.8653C1.56041 15.8845 1.55916 15.9045 1.55237 15.9229C1.54558 15.9413 1.53358 15.9571 1.51794 15.9683C1.5023 15.9795 1.48374 15.9856 1.4647 15.9857C1.44566 15.9859 1.42702 15.9801 1.41123 15.9691L0.123377 15.078C0.109987 15.069 0.0942755 15.0643 0.0782832 15.0646C0.062291 15.0649 0.0467568 15.0702 0.0336983 15.0797C0.0206398 15.0893 0.0106603 15.1026 0.00505587 15.1181C-0.000548519 15.1336 -0.00151883 15.1504 0.00227098 15.1665L0.173591 15.8653C0.613172 17.646 1.46139 19.2911 2.64649 20.6616C3.83159 22.032 5.31872 23.0874 6.9821 23.7385C7.05946 23.7685 7.12845 23.8178 7.18296 23.8819L9.98907 27.1563C10.0357 27.2105 10.0691 27.2753 10.0865 27.3455L11.723 33.5647C11.7504 33.6685 11.7988 33.7652 11.865 33.8483C11.9312 33.9314 12.0136 33.9991 12.1069 34.0469L15.8346 35.9664C15.89 35.9946 15.9526 36.0042 16.0135 35.9938C16.0744 35.9834 16.1307 35.9535 16.1743 35.9084L18.4812 33.5403C18.4982 33.5235 18.5102 33.5021 18.5158 33.4786C18.5214 33.455 18.5205 33.4303 18.5131 33.4073C18.5056 33.3843 18.492 33.3639 18.4739 33.3486C18.4557 33.3332 18.4337 33.3235 18.4104 33.3206L13.0374 32.5333C12.9826 32.5252 12.9324 32.497 12.8961 32.4539C12.8597 32.4107 12.8396 32.3555 12.8395 32.2983V28.0505C12.8398 28.017 12.8478 27.9842 12.8626 27.9545C12.8775 27.9248 12.8989 27.8991 12.9251 27.8796L15.2527 26.1401C15.2637 26.1317 15.2766 26.1261 15.2902 26.1241C15.3037 26.122 15.3176 26.1235 15.3305 26.1283C15.3434 26.1332 15.3549 26.1412 15.364 26.1518C15.3731 26.1624 15.3796 26.1752 15.3827 26.189L16.3545 30.1561C16.3804 30.2625 16.4285 30.3619 16.4953 30.4473C16.5621 30.5326 16.6461 30.602 16.7415 30.6504L20.4603 32.5669C20.5157 32.5951 20.5782 32.6047 20.6392 32.5943C20.7001 32.5839 20.7563 32.554 20.8 32.5089L23.0655 30.1835C23.0825 30.1667 23.0945 30.1453 23.1001 30.1218C23.1057 30.0982 23.1048 30.0735 23.0974 30.0505C23.0899 30.0275 23.0763 30.0072 23.0582 29.9918C23.04 29.9765 23.018 29.9668 22.9947 29.9638L17.7664 29.1918C17.7116 29.1837 17.6615 29.1555 17.6251 29.1124C17.5888 29.0692 17.5687 29.014 17.5685 28.9568V25.9052C17.5685 25.8572 17.5834 25.8105 17.6111 25.7721C17.6387 25.7336 17.6777 25.7053 17.7221 25.6915L20.8797 24.715C22.4064 24.248 23.7959 23.3943 24.922 22.2314C26.0481 21.0686 26.8751 19.6334 27.3279 18.0564C27.8107 16.3673 27.8423 14.5748 27.4194 12.8686L26.105 7.5588C26.0845 7.47712 26.0914 7.39066 26.1247 7.31359C26.158 7.23653 26.2156 7.17342 26.2881 7.13463L29.88 5.24262C30.0039 5.17773 30.1437 5.15224 30.2817 5.16938L30.4235 5.18464C31.8999 5.38217 33.3989 5.08934 34.7035 4.3485C34.7509 4.31547 34.788 4.26893 34.8103 4.21454C34.8326 4.16016 34.8392 4.10025 34.8292 4.04209C34.8192 3.98394 34.793 3.93003 34.7539 3.88692C34.7149 3.8438 34.6645 3.81333 34.609 3.7992L34.6031 3.80226Z" fill="white"/>
</svg>
