<svg width="192" height="36" viewBox="0 0 192 36" fill="none" xmlns="http://www.w3.org/2000/svg">
<g clip-path="url(#clip0_173_287)">
<path d="M52.6331 4.01892C55.3595 4.01892 57.6162 5.33417 58.8361 7.62593L58.8923 7.72969H61.2553L61.149 7.45504C59.7754 3.98535 56.5174 1.82785 52.6331 1.82785C47.2602 1.82785 43.2017 5.91703 43.2017 11.3398C43.2017 16.7625 47.2602 20.8547 52.6331 20.8547C56.5174 20.8547 59.7754 18.7003 61.1342 15.2275L61.2405 14.9529H58.8775L58.8214 15.0566C57.6103 17.3484 55.3506 18.6637 52.6184 18.6637C48.5244 18.6637 45.5558 15.5846 45.5558 11.3398C45.5558 7.09495 48.5274 4.01586 52.6184 4.01586L52.6331 4.01892Z" fill="white"/>
<path d="M69.6677 2.18488L62.2241 20.4946H64.7024L66.2118 16.6313H75.0259L76.5353 20.4946H79.0135L71.5699 2.18488H69.6766H69.6677ZM74.19 14.5165H67.0506L70.6129 5.27617L74.19 14.5165Z" fill="white"/>
<path d="M94.4174 16.5245L83.385 2.18488H81.5625V20.4946H83.7838V6.15504L94.8132 20.4946H96.6357V2.18488H94.4174V16.5245Z" fill="white"/>
<path d="M103.075 12.2827H111.815V10.0916H103.075V4.37594H112.04V2.18488H100.706V20.4946H112.14V18.3036H103.075V12.2827Z" fill="white"/>
<path d="M124.086 18.273C123.495 19.3777 122.801 19.9911 122.254 19.9911C121.445 19.9911 121.351 19.1794 121.873 17.3392L126.083 2.5999C126.177 2.23065 126.13 2.18182 125.772 2.18182H121.755C121.661 2.18182 121.613 2.20624 121.613 2.40154C121.613 2.59684 121.661 2.62126 121.755 2.62126H123.3C123.658 2.62126 123.681 2.67008 123.595 3.03933L119.569 17.0402C118.831 19.57 119.829 20.8486 121.472 20.8486C122.541 20.8486 123.634 19.988 124.396 18.4073C124.443 18.3097 124.16 18.1388 124.086 18.2608V18.273Z" fill="white"/>
<path d="M132.099 9.65222C128.747 9.65222 125.94 12.7466 125.94 16.2346C125.94 18.981 127.606 20.8517 129.745 20.8517C131.432 20.8517 133.027 19.6493 133.88 18.1998C133.928 18.1022 133.641 17.8947 133.57 18.0045C132.811 19.2252 131.432 20.4122 129.978 20.4122C128.646 20.4122 127.982 19.4968 127.982 17.7604C127.99 16.8215 128.118 15.8878 128.363 14.9834H129.266C133.284 14.9834 134.879 13.4851 134.879 11.8646C134.879 10.6623 133.809 9.65527 132.096 9.65527L132.099 9.65222ZM129.461 14.5897H128.439C128.844 13.1646 129.532 11.8128 130.294 11.0285C130.912 10.3907 131.532 10.0947 132.126 10.0947C132.719 10.0947 133.1 10.5372 133.1 11.3978C133.1 13.1189 131.96 14.5897 129.461 14.5897Z" fill="white"/>
<path d="M143.56 2.18488H141.191V20.4946H152.102V18.3036H143.56V2.18488Z" fill="white"/>
<path d="M161.141 2.18488L153.697 20.4946H156.175L157.685 16.6313H166.49L168 20.4946H170.478L163.049 2.18488H161.156H161.141ZM165.663 14.5165H158.509L162.086 5.27617L165.663 14.5165Z" fill="white"/>
<path d="M175.505 2.18488H173.136V20.4946H175.505V2.18488Z" fill="white"/>
<path d="M178.288 2.18488V4.35153H183.959V20.4946H186.328V4.35153H191.999V2.18488H178.288Z" fill="white"/>
<path d="M66.0464 33.7081V28.4807H69.3281V29.3321H66.9857V30.7206H69.2631V31.5659H66.9857V33.702L66.0464 33.7081Z" fill="white"/>
<path d="M71.6084 28.4807H72.5477V33.7081H71.6084V28.4807Z" fill="white"/>
<path d="M75.1675 28.4807H75.9562L78.8657 32.1915V28.4807H79.7843V33.7081H78.9956L76.0832 30.0035V33.7081H75.1646V28.4807H75.1675Z" fill="white"/>
<path d="M82.3691 28.4807H85.7512V29.3321H83.2966V30.6321H85.6597V31.4744H83.2966V32.8567H85.769V33.7081H82.3691V28.4807Z" fill="white"/>
<path d="M93.7324 28.377C94.2799 28.3736 94.8151 28.545 95.2648 28.8676C95.7145 29.1903 96.0568 29.6486 96.2449 30.1799C96.433 30.7111 96.4577 31.2894 96.3157 31.8357C96.1737 32.382 95.8719 32.8697 95.4515 33.2321L96.1161 34.1751H95.1118L94.7367 33.6532C94.416 33.7696 94.0782 33.8275 93.7383 33.8241C93.0403 33.8241 92.3709 33.5377 91.8773 33.0277C91.3837 32.5178 91.1064 31.8262 91.1064 31.1051C91.1064 30.384 91.3837 29.6924 91.8773 29.1825C92.3709 28.6726 93.0403 28.3861 93.7383 28.3861L93.7324 28.377ZM94.4915 31.865L94.9405 32.4997C95.116 32.3143 95.2542 32.0948 95.347 31.8538C95.4398 31.6129 95.4853 31.3553 95.481 31.096C95.481 30.0889 94.8312 29.2131 93.7324 29.2131C92.6336 29.2131 91.9837 30.0859 91.9837 31.096C91.9707 31.3403 92.0065 31.5848 92.0888 31.8142C92.1712 32.0437 92.2983 32.2532 92.4622 32.4297C92.6262 32.6063 92.8236 32.7462 93.0421 32.8406C93.2606 32.9351 93.4955 32.9821 93.7324 32.9788C93.8957 32.9796 94.0584 32.9591 94.2168 32.9178L93.4724 31.865H94.4915Z" fill="white"/>
<path d="M102.154 28.4807H103.087V31.6452C103.087 32.9513 102.177 33.8119 100.904 33.8119C99.631 33.8119 98.7212 32.9544 98.7212 31.6452V28.4807H99.6605V31.6697C99.6605 32.0104 99.7915 32.3372 100.025 32.5781C100.258 32.819 100.574 32.9544 100.904 32.9544C101.234 32.9544 101.55 32.819 101.783 32.5781C102.017 32.3372 102.148 32.0104 102.148 31.6697V28.4807H102.154Z" fill="white"/>
<path d="M110.058 33.7081H109.054L108.714 32.7927H106.372L106.032 33.7081H105.028L107.19 28.4807H107.899L110.061 33.7081H110.058ZM107.544 29.6251L106.658 31.9992H108.431L107.544 29.6251Z" fill="white"/>
<path d="M112.265 28.4807H113.204V32.8567H115.508V33.7081H112.259V28.4807H112.265Z" fill="white"/>
<path d="M117.827 28.4807H118.766V33.7081H117.827V28.4807Z" fill="white"/>
<path d="M125.022 29.326H123.498V33.7081H122.558V29.326H121.034V28.4838H125.022V29.326Z" fill="white"/>
<path d="M128.546 31.7734L126.773 28.4807H127.778L129.021 30.8701L130.262 28.4807H131.266L129.494 31.7734V33.7081H128.555L128.546 31.7734Z" fill="white"/>
<path d="M140.547 30.1469C140.404 29.8555 140.183 29.6127 139.91 29.4472C139.637 29.2817 139.324 29.2004 139.008 29.2131C138.769 29.2041 138.53 29.247 138.308 29.3391C138.085 29.4312 137.884 29.5705 137.717 29.7479C137.55 29.9254 137.421 30.137 137.338 30.3692C137.255 30.6014 137.22 30.849 137.236 31.096C137.236 32.2525 137.951 33.0002 139.008 33.0002C139.894 33.0002 140.447 32.5211 140.642 31.8741H138.727V31.0746H141.655C141.67 31.4366 141.612 31.7979 141.485 32.1356C141.357 32.4732 141.164 32.7799 140.916 33.0361C140.668 33.2923 140.371 33.4925 140.044 33.624C139.717 33.7554 139.367 33.8153 139.017 33.7997C138.663 33.815 138.31 33.7559 137.98 33.6258C137.649 33.4957 137.347 33.2975 137.093 33.0431C136.839 32.7887 136.637 32.4836 136.501 32.1462C136.364 31.8088 136.296 31.4463 136.299 31.0807C136.299 29.5549 137.383 28.3617 139.017 28.3617C139.561 28.3385 140.097 28.5007 140.544 28.8232C140.99 29.1458 141.321 29.6109 141.486 30.1469H140.547Z" fill="white"/>
<path d="M146.446 28.377C146.964 28.3884 147.467 28.5575 147.893 28.8631C148.318 29.1688 148.646 29.5973 148.837 30.095C149.028 30.5927 149.072 31.1375 148.964 31.6611C148.856 32.1846 148.601 32.6637 148.231 33.0382C147.861 33.4126 147.392 33.6659 146.883 33.7662C146.374 33.8665 145.848 33.8094 145.37 33.602C144.892 33.3946 144.485 33.0462 144.198 32.6004C143.911 32.1546 143.758 31.6312 143.758 31.096C143.75 30.7317 143.814 30.3696 143.947 30.0321C144.08 29.6947 144.279 29.389 144.531 29.1341C144.783 28.8792 145.083 28.6804 145.412 28.5502C145.742 28.42 146.094 28.361 146.446 28.377ZM144.697 31.096C144.711 31.4505 144.826 31.7931 145.027 32.0809C145.227 32.3688 145.506 32.5893 145.827 32.715C146.148 32.8407 146.498 32.8661 146.833 32.7879C147.168 32.7098 147.474 32.5317 147.711 32.2756C147.949 32.0195 148.109 31.6969 148.171 31.3478C148.232 30.9987 148.193 30.6386 148.058 30.3123C147.924 29.9859 147.699 29.7077 147.412 29.5123C147.125 29.3168 146.789 29.2128 146.446 29.2131C145.347 29.2131 144.697 30.0859 144.697 31.096Z" fill="white"/>
<path d="M153.892 28.377C154.41 28.3884 154.914 28.5575 155.339 28.8631C155.764 29.1687 156.093 29.5973 156.283 30.095C156.474 30.5927 156.518 31.1375 156.41 31.6611C156.303 32.1846 156.048 32.6637 155.677 33.0381C155.307 33.4126 154.838 33.6659 154.329 33.7662C153.82 33.8665 153.294 33.8094 152.816 33.602C152.339 33.3946 151.931 33.0462 151.644 32.6004C151.358 32.1546 151.204 31.6312 151.204 31.096C151.196 30.7316 151.26 30.3693 151.393 30.0316C151.526 29.6939 151.724 29.3881 151.976 29.133C152.229 28.878 152.529 28.6793 152.858 28.5493C153.188 28.4192 153.54 28.3605 153.892 28.377ZM152.144 31.096C152.158 31.4505 152.272 31.793 152.473 32.0809C152.674 32.3688 152.952 32.5893 153.273 32.715C153.595 32.8407 153.944 32.8661 154.279 32.7879C154.615 32.7098 154.92 32.5316 155.158 32.2756C155.396 32.0195 155.555 31.6969 155.617 31.3478C155.679 30.9987 155.64 30.6386 155.505 30.3122C155.37 29.9859 155.145 29.7077 154.858 29.5123C154.572 29.3168 154.236 29.2128 153.892 29.2131C152.802 29.2131 152.153 30.0859 152.153 31.096H152.144Z" fill="white"/>
<path d="M158.914 33.7081V28.4807H160.391C162.379 28.4807 163.427 29.6739 163.427 31.0929C163.427 32.5119 162.379 33.7051 160.391 33.7051H158.914V33.7081ZM159.853 32.8873H160.323C161.741 32.8873 162.5 32.2067 162.5 31.096C162.5 29.9852 161.747 29.2924 160.329 29.2924H159.859L159.853 32.8873Z" fill="white"/>
<path d="M166.425 32.1793C166.434 32.2996 166.465 32.417 166.518 32.5248C166.571 32.6325 166.643 32.7284 166.732 32.8069C166.821 32.8855 166.924 32.9451 167.035 32.9825C167.146 33.0199 167.263 33.0342 167.379 33.0246C167.908 33.0246 168.239 32.7194 168.239 32.2617C168.239 31.865 167.994 31.6269 167.574 31.5079L166.924 31.3218C166.145 31.099 165.637 30.7114 165.637 29.9028C165.637 28.9476 166.375 28.377 167.314 28.377C167.521 28.3663 167.727 28.3979 167.921 28.4701C168.116 28.5422 168.295 28.6534 168.447 28.7972C168.6 28.941 168.724 29.1147 168.811 29.3081C168.898 29.5015 168.948 29.7109 168.957 29.9241H168.097C168.095 29.8213 168.073 29.7199 168.033 29.6259C167.992 29.5319 167.934 29.4472 167.861 29.377C167.789 29.3067 167.703 29.2522 167.61 29.2167C167.516 29.1812 167.417 29.1655 167.317 29.1704C166.842 29.1704 166.573 29.4237 166.573 29.8204C166.573 30.2171 166.868 30.3788 167.267 30.5009L167.896 30.687C168.646 30.9098 169.169 31.3431 169.169 32.1884C169.169 33.1894 168.316 33.8149 167.362 33.8149C166.292 33.8149 165.648 33.1589 165.539 32.1793H166.425Z" fill="white"/>
<path d="M34.6031 3.80226L34.2634 3.74733C32.5858 3.48685 30.9866 2.83912 29.5846 1.85227L29.2419 1.45556C28.7752 0.926974 28.1923 0.522033 27.5424 0.274851C26.8924 0.0276679 26.1945 -0.054515 25.5074 0.0352256C24.8203 0.124966 24.1642 0.384002 23.5943 0.790508C23.0243 1.19701 22.5573 1.73908 22.2326 2.37104C21.6819 3.4373 21.3909 4.62611 21.3848 5.83464V10.232C21.3841 10.2952 21.3597 10.3556 21.3167 10.4006C21.2737 10.4455 21.2156 10.4715 21.1544 10.4731L18.9952 10.4945C16.5816 10.5172 14.2159 11.1926 12.1335 12.4536L10.6566 13.3691C9.44133 14.1015 8.05807 14.4836 6.65113 14.4756C5.24419 14.4675 3.86511 14.0696 2.65774 13.3233L0.920903 12.2522C0.907513 12.2432 0.891802 12.2385 0.875809 12.2388C0.859817 12.2391 0.844283 12.2444 0.831224 12.2539C0.818166 12.2635 0.808186 12.2768 0.802582 12.2923C0.796978 12.3078 0.796007 12.3246 0.799797 12.3407L1.55597 15.8653C1.56041 15.8845 1.55916 15.9045 1.55237 15.9229C1.54558 15.9413 1.53358 15.9571 1.51794 15.9683C1.5023 15.9795 1.48374 15.9856 1.4647 15.9857C1.44566 15.9859 1.42702 15.9801 1.41123 15.9691L0.123377 15.078C0.109987 15.069 0.0942755 15.0643 0.0782832 15.0646C0.062291 15.0649 0.0467568 15.0702 0.0336983 15.0797C0.0206398 15.0893 0.0106603 15.1026 0.00505587 15.1181C-0.000548519 15.1336 -0.00151883 15.1504 0.00227098 15.1665L0.173591 15.8653C0.613172 17.646 1.46139 19.2911 2.64649 20.6616C3.83159 22.032 5.31872 23.0874 6.9821 23.7385C7.05946 23.7685 7.12845 23.8178 7.18296 23.8819L9.98907 27.1563C10.0357 27.2105 10.0691 27.2753 10.0865 27.3455L11.723 33.5647C11.7504 33.6685 11.7988 33.7652 11.865 33.8483C11.9312 33.9314 12.0136 33.9991 12.1069 34.0469L15.8346 35.9664C15.89 35.9946 15.9526 36.0042 16.0135 35.9938C16.0744 35.9834 16.1307 35.9535 16.1743 35.9084L18.4812 33.5403C18.4982 33.5235 18.5102 33.5021 18.5158 33.4786C18.5214 33.455 18.5205 33.4303 18.5131 33.4073C18.5056 33.3843 18.492 33.3639 18.4739 33.3486C18.4557 33.3332 18.4337 33.3235 18.4104 33.3206L13.0374 32.5333C12.9826 32.5252 12.9324 32.497 12.8961 32.4539C12.8597 32.4107 12.8396 32.3555 12.8395 32.2983V28.0505C12.8398 28.017 12.8478 27.9842 12.8626 27.9545C12.8775 27.9248 12.8989 27.8991 12.9251 27.8796L15.2527 26.1401C15.2637 26.1317 15.2766 26.1261 15.2902 26.1241C15.3037 26.122 15.3176 26.1235 15.3305 26.1283C15.3434 26.1332 15.3549 26.1412 15.364 26.1518C15.3731 26.1624 15.3796 26.1752 15.3827 26.189L16.3545 30.1561C16.3804 30.2625 16.4285 30.3619 16.4953 30.4473C16.5621 30.5326 16.6461 30.602 16.7415 30.6504L20.4603 32.5669C20.5157 32.5951 20.5782 32.6047 20.6392 32.5943C20.7001 32.5839 20.7563 32.554 20.8 32.5089L23.0655 30.1835C23.0825 30.1667 23.0945 30.1453 23.1001 30.1218C23.1057 30.0982 23.1048 30.0735 23.0974 30.0505C23.0899 30.0275 23.0763 30.0072 23.0582 29.9918C23.04 29.9765 23.018 29.9668 22.9947 29.9638L17.7664 29.1918C17.7116 29.1837 17.6615 29.1555 17.6251 29.1124C17.5888 29.0692 17.5687 29.014 17.5685 28.9568V25.9052C17.5685 25.8572 17.5834 25.8105 17.6111 25.7721C17.6387 25.7336 17.6777 25.7053 17.7221 25.6915L20.8797 24.715C22.4064 24.248 23.7959 23.3943 24.922 22.2314C26.0481 21.0686 26.8751 19.6334 27.3279 18.0564C27.8107 16.3673 27.8423 14.5748 27.4194 12.8686L26.105 7.5588C26.0845 7.47712 26.0914 7.39066 26.1247 7.31359C26.158 7.23653 26.2156 7.17342 26.2881 7.13463L29.88 5.24262C30.0039 5.17773 30.1437 5.15224 30.2817 5.16938L30.4235 5.18464C31.8999 5.38217 33.3989 5.08934 34.7035 4.3485C34.7509 4.31547 34.788 4.26893 34.8103 4.21454C34.8326 4.16016 34.8392 4.10025 34.8292 4.04209C34.8192 3.98394 34.793 3.93003 34.7539 3.88692C34.7149 3.8438 34.6645 3.81333 34.609 3.7992L34.6031 3.80226Z" fill="white"/>
</g>
<defs>
<clipPath id="clip0_173_287">
<rect width="192" height="36" fill="white"/>
</clipPath>
</defs>
</svg>
